:SAMPLES-PER-SECOND 30
:FULLY-SPECIFIED
:DEGREES
2533
root  6.82449 37.8456 2.70162 38.6042 88.3942 49.82
RightUpLeg  -13.7982 -14.161 -4.26583
RightLeg  39.9003 -5.72877 -5.40107
RightFoot  -13.1151 -0.114164 -1.54881
RightToes  0.000481921 0.542163 -0.142578
Spine  23.2414 -1.00556 4.11415
Spine1  14.6525 -0.63057 1.90073
HEad  -1.2429 -1.96981 -0.174916
LeftShoulder1  0.506657 -4.59587 2.47609
LeftArm  -75.6529 -51.5749 6.81061
LeftForeArm  108.891 -74.2482 -135.115
LeftHand  -0.25398 0.0180481 5.50724
RightShoulder  0.0161617 -4.22049 -12.167
RightArm  -65.1596 50.5768 0.283098
RightForeArm  69.7317 70.5583 140.825
RightHand  -0.966257 -0.588908 -23.1412
LeftUpLeg  -12.4566 12.6071 1.24288
LeftLeg  38.7457 7.51291 6.79151
LeftFoot  -13.5099 0.0279694 -2.8439
LeftToes  1.06245e-005 4.65868e-005 -8.65517e-006
2534
root  6.8549 37.8137 2.67168 35.7071 88.3799 47.0964
RightUpLeg  -13.6926 -14.0208 -4.3008
RightLeg  40.1648 -5.75895 -5.47689
RightFoot  -13.2351 -0.114318 -1.5051
RightToes  0.000481921 0.542163 -0.142578
Spine  23.1266 -0.942672 4.14946
Spine1  14.9317 -0.524817 1.81283
HEad  -1.0498 -2.12495 -0.182629
LeftShoulder1  0.528069 -4.76984 2.33075
LeftArm  -75.2124 -51.6454 6.54417
LeftForeArm  109.019 -74.2302 -135.194
LeftHand  -0.25398 0.0180481 5.50724
RightShoulder  0.0105853 -4.03703 -11.8435
RightArm  -64.4573 50.4293 0.674218
RightForeArm  70.1581 70.3692 141.295
RightHand  -0.964815 -0.608045 -23.1959
LeftUpLeg  -12.3397 12.7031 1.30384
LeftLeg  39.0244 7.48082 6.8284
LeftFoot  -13.6971 0.0252729 -2.75567
LeftToes  1.06245e-005 4.65868e-005 -8.65517e-006
2535
root  6.89021 37.8335 2.6422 34.7508 88.3796 46.2084
RightUpLeg  -13.4826 -13.9426 -4.35775
RightLeg  40.0299 -5.80362 -5.4914
RightFoot  -13.1942 -0.11285 -1.45984
RightToes  0.000481921 0.542163 -0.142578
Spine  23.0535 -0.889592 4.02751
Spine1  14.8705 -0.49805 1.83406
HEad  -1.01503 -2.17336 -0.103894
LeftShoulder1  0.533745 -4.85411 2.32678
LeftArm  -74.5693 -51.5623 6.12636
LeftForeArm  108.966 -74.2296 -135.186
LeftHand  -0.25398 0.0180481 5.50724
RightShoulder  0.00437341 -3.75734 -11.5781
RightArm  -63.7467 50.2698 0.96914
RightForeArm  70.2045 70.3246 141.402
RightHand  -0.99133 -0.504726 -23.3362
LeftUpLeg  -12.1275 12.7405 1.30457
LeftLeg  38.8905 7.50664 6.8195
LeftFoot  -13.7087 0.026569 -2.69092
LeftToes  1.06245e-005 4.65868e-005 -8.65517e-006
2536
root  6.92866 37.8868 2.60601 35.316 88.3663 46.7357
RightUpLeg  -13.2561 -13.9281 -4.46455
RightLeg  39.6463 -5.79953 -5.41627
RightFoot  -13.0887 -0.108518 -1.30976
RightToes  0.000481921 0.542163 -0.142578
Spine  22.9812 -0.820574 3.76658
Spine1  14.5748 -0.554975 2.06651
HEad  -1.17244 -1.98694 -0.0579958
LeftShoulder1  0.543987 -4.84007 2.17503
LeftArm  -74.0387 -51.4354 5.93699
LeftForeArm  108.865 -74.2542 -135.092
LeftHand  -0.25398 0.0180481 5.50724
RightShoulder  0.000404178 -3.50015 -11.5873
RightArm  -63.2403 50.1628 1.17325
RightForeArm  69.8969 70.4154 141.174
RightHand  -1.03398 -0.319119 -23.4648
LeftUpLeg  -11.8874 12.787 1.23117
LeftLeg  38.4724 7.54577 6.75673
LeftFoot  -13.5977 0.0292522 -2.65364
LeftToes  1.06245e-005 4.65868e-005 -8.65517e-006
2537
root  6.97054 37.9553 2.55846 36.1298 88.3389 47.4194
RightUpLeg  -13.0738 -13.9124 -4.58174
RightLeg  39.1527 -5.79213 -5.31883
RightFoot  -12.9249 -0.103423 -1.15749
RightToes  0.000481921 0.542163 -0.142578
Spine  22.7693 -0.773469 3.67189
Spine1  14.3604 -0.553945 2.12429
HEad  -1.44762 -1.69292 -0.0447879
LeftShoulder1  0.55056 -4.8432 2.08813
LeftArm  -73.9639 -51.3653 6.10112
LeftForeArm  108.515 -74.3499 -134.729
LeftHand  -0.25398 0.0180481 5.50724
RightShoulder  0.000686169 -3.45551 -11.6801
RightArm  -63.1468 50.0949 1.14415
RightForeArm  69.6049 70.5176 140.917
RightHand  -1.05372 -0.214767 -23.44
LeftUpLeg  -11.6792 12.9119 1.11613
LeftLeg  37.9234 7.55613 6.64115
LeftFoot  -13.4338 0.0330168 -2.6015
LeftToes  1.06245e-005 4.65868e-005 -8.65517e-006
